<svg xmlns="http://www.w3.org/2000/svg" version="1" width="1597" height="221" viewBox="0 0 15970 2210"><path fill="#ffffff" d="M10734 2137c-72-52-114-89-109-98 4-5 39 16 80 47s72 60 69 65c-6 11-3 12-40-14zM10854 2131c-75-56-97-78-87-84s133 85 134 99c2 16-11 12-47-15zM10938 2092c-31-26-54-50-52-54 7-11 30 3 83 50 64 55 37 58-31 4zM325 2086c-27-23-44-45-39-48 5-4 32 13 59 36 26 23 44 45 38 49-5 3-31-13-58-37zM982 2081c-35-27-62-53-60-58 5-12 16-6 79 44 32 25 56 50 53 54-7 12-1 15-72-40zM1650 2101c-19-15-29-30-23-34 5-3 25 6 43 22 19 15 29 30 23 34-5 3-25-6-43-22zM1769 2104c-13-14-45-42-71-62-31-23-44-40-38-46 10-10 155 102 153 119-3 19-20 15-44-11zM3595 2086c-27-23-44-45-39-48 5-4 32 13 59 36 26 23 44 45 38 49-5 3-31-13-58-37zM4252 2081c-35-27-62-53-60-58 5-12 16-6 79 44 32 25 56 50 53 54-7 12-1 15-72-40zM7275 2100c-72-52-109-86-98-93 6-4 27 6 46 21 20 15 54 40 76 56s38 33 35 38c-8 12-15 9-59-22zM7368 2067c-43-33-75-64-72-69 6-9 59 27 128 85 70 60 23 46-56-16zM9546 2111c-10-11-13-22-8-25s17 3 26 13c10 11 13 22 8 25s-17-3-26-13zM1119 2082c-56-50-37-62 20-13 25 22 40 41 34 44-6 4-30-10-54-31zM2876 2101c-10-11-13-22-8-25s17 3 26 13c10 11 13 22 8 25s-17-3-26-13zM4389 2082c-56-50-37-62 20-13 25 22 40 41 34 44-6 4-30-10-54-31zM5033 2087c-23-16-40-34-37-39 6-9 27 1 68 35 44 36 17 40-31 4zM5815 2086c-25-21-35-35-27-40 6-4 27 8 48 27 49 44 29 57-21 13zM6568 2061c-36-31-64-59-61-63 6-12 31 4 92 59 77 69 50 73-31 4zM8026 2063c-72-62-80-91-11-42 59 42 99 85 87 93-6 3-40-19-76-51zM9750 2070c-33-28-58-56-54-61 5-8 35 13 127 92 5 4 4 10-1 13-6 3-38-17-72-44zM11042 2069c-34-28-60-54-57-60 4-5 33 12 66 38 66 51 73 59 62 66-5 3-36-17-71-44zM12797 2056c-38-35-65-66-60-69 12-7 155 112 147 124-9 15-16 10-87-55zM13382 2079c-63-48-59-73 4-27 53 38 68 54 57 61-5 3-32-12-61-34zM13627 2059c-42-33-75-65-72-70 4-5 42 18 86 52 44 33 77 64 74 70-8 12 1 17-88-52zM438 2063c-32-25-55-50-52-55 6-9 34 9 93 60 57 48 20 43-41-5zM2590 2081c-19-15-29-30-24-33 5-4 25 6 43 21 19 16 30 31 24 34-5 3-25-6-43-22zM3708 2063c-32-25-55-50-52-55 6-9 34 9 93 60 57 48 20 43-41-5zM5108 2053c-37-30-65-59-62-64s32 12 65 37c68 54 83 70 72 77-4 2-38-20-75-50zM5897 2053c-80-67-79-91 2-29 66 51 85 72 73 80-5 3-39-20-75-51zM6476 2091c-10-11-13-22-8-25s17 3 26 13c10 11 13 22 8 25s-17-3-26-13zM12311 2086c-28-30-14-41 19-16 18 13 22 22 14 30-7 7-17 3-33-14zM12677 2063c-66-51-68-79-1-31 53 38 78 64 67 71-4 3-34-15-66-40zM12955 2078c-58-43-95-80-89-90 5-8 33 11 113 80 46 39 26 47-24 10zM13536 2091c-10-11-13-22-8-25s17 3 26 13c10 11 13 22 8 25s-17-3-26-13zM1236 2071c-15-16-23-31-18-35 5-3 21 8 36 23 15 16 23 31 18 35-5 3-21-8-36-23zM1843 2048c-34-28-60-55-57-60 6-9 37 11 98 64 64 55 27 51-41-4zM2711 2076c-13-13-18-26-13-30 5-3 19 5 31 18 13 13 18 26 13 30-5 3-19-5-31-18zM4506 2071c-15-16-23-31-18-35 5-3 21 8 36 23 15 16 23 31 18 35-5 3-21-8-36-23zM7480 2051c-31-27-49-50-43-54 5-3 34 15 63 42 31 27 49 50 43 54-5 3-34-15-63-42zM7890 2061c-24-21-39-40-34-44 6-3 30 11 54 32s39 40 34 44c-6 3-30-11-54-32zM12397 2061c-67-53-81-68-69-75 13-8 134 93 126 105-6 11 0 14-57-30zM13761 2060c-29-26-39-40-31-45s27 8 52 32c52 52 36 62-21 13zM14256 2071c-15-16-23-31-18-35 5-3 21 8 36 23 15 16 23 31 18 35-5 3-21-8-36-23zM14370 2061c-26-22-39-40-33-44s30 10 54 31c23 21 38 41 33 45-6 3-30-11-54-32zM15315 2076c-18-14-24-25-17-30 6-3 23 4 38 17 36 31 17 43-21 13zM15451 2076c-13-13-18-26-13-30 5-3 19 5 31 18 13 13 18 26 13 30-5 3-19-5-31-18zM15542 2048c-59-51-77-88-24-48 63 47 104 88 94 94-6 3-37-17-70-46zM2465 2056c-21-18-34-35-29-39 5-3 27 9 49 27 21 18 34 35 29 39-5 3-27-9-49-27zM2935 2046c-26-23-44-45-38-49 5-3 31 13 58 37 27 23 44 45 39 48-5 4-32-13-59-36zM9625 2070c-10-11-23-20-30-20-17 0-48-37-37-44 9-6 84 43 96 63 12 19-12 20-29 1zM13882 2048c-62-50-59-71 4-26 54 39 68 54 56 62-5 3-33-13-60-36zM14495 2056c-21-18-34-35-29-39 5-3 27 9 49 27 21 18 34 35 29 39-5 3-27-9-49-27zM2826 2061c-10-11-13-22-8-25s17 3 26 13c10 11 13 22 8 25s-17-3-26-13zM5242 2048c-23-16-40-34-37-39 7-11 26-1 69 34s18 40-32 5zM9860 2053c-51-35-80-65-74-74 3-5 25 6 49 23 23 18 51 38 61 44 13 8 16 15 9 22-6 6-22 1-45-15zM12521 2041c-24-21-40-41-35-44 6-3 30 11 54 32s39 40 34 43c-5 4-29-11-53-31zM535 2036c-21-18-34-35-29-39 5-3 27 9 49 27 22 19 34 35 28 39s-27-8-48-27zM3805 2036c-21-18-34-35-29-39 5-3 27 9 49 27 22 19 34 35 28 39s-27-8-48-27zM8142 2047c-12-13-19-26-16-30 10-9 65 33 59 44-9 14-20 11-43-14zM13465 2036c-22-19-34-35-28-39s27 8 48 27c21 18 34 35 29 39-5 3-27-9-49-27zM3026 2011c-21-21-34-41-29-44 6-4 27 11 47 32 21 21 34 41 29 44-6 4-27-11-47-32zM11101 2010c-24-20-39-40-33-44 5-3 29 11 53 32 23 21 38 41 33 44s-29-11-53-32zM13951 2001c-32-29-50-50-43-54 6-4 34 15 63 41 69 63 50 75-20 13z"/><path fill="#ffffff" d="M1046 2021c-10-11-13-22-8-25s17 3 26 13c10 11 13 22 8 25s-17-3-26-13zM1160 2011c-19-15-29-30-24-33 5-4 25 6 43 21 19 16 30 31 24 34-5 3-25-6-43-22zM1901 1991c-29-27-49-51-44-54 12-8 125 82 117 94-9 15-16 11-73-40zM4316 2021c-10-11-13-22-8-25s17 3 26 13c10 11 13 22 8 25s-17-3-26-13zM4430 2011c-19-15-29-30-24-33 5-4 25 6 43 21 19 16 30 31 24 34-5 3-25-6-43-22zM12980 1991c-30-26-49-50-43-54 5-3 34 15 63 42 30 26 49 50 44 54-5 3-34-16-64-42zM5966 1991c-21-21-34-41-29-44 6-4 27 11 47 32 21 21 34 41 29 44-6 4-27-11-47-32zM13296 2011c-10-11-13-22-8-25s17 3 26 13c10 11 13 22 8 25s-17-3-26-13zM11215 1996c-15-13-24-25-19-29 6-3 23 4 39 17 15 13 24 25 19 29-6 3-23-4-39-17zM14531 1980c-29-23-49-45-45-51 5-8 47 20 107 72 5 4 4 10-1 13-6 3-33-12-61-34zM8071 1986c-13-13-18-26-13-30 5-3 19 5 31 18 13 13 18 26 13 30-5 3-19-5-31-18zM15577 1972c-21-21-34-41-31-45 9-9 95 63 88 74-9 15-19 10-57-29zM3071 1946c-29-30-49-56-44-59s33 18 62 47c29 30 49 56 44 59s-33-18-62-47zM7478 1943c-37-30-65-59-62-64 7-12 29 1 93 59 76 68 51 72-31 5zM560 1951c-24-21-39-40-34-44 6-3 30 11 54 32s39 40 34 44c-6 3-30-11-54-32zM3830 1951c-24-21-39-40-34-44 6-3 30 11 54 32s39 40 34 44c-6 3-30-11-54-32zM5266 1961c-35-36-20-48 20-16 20 17 26 27 18 34-7 8-18 3-38-18zM9853 1942c-61-46-77-75-25-47 42 22 106 81 96 87-5 3-37-15-71-40zM10685 1983c-87-5-198-35-240-64-160-110-235-306-204-534 5-38 14-113 19-165 6-52 17-124 25-160 7-36 17-92 20-125 4-33 13-75 20-95 7-19 16-53 19-75s12-76 20-120l14-80-30-26c-36-30-25-47 12-19 24 18 24 18 42-11 20-32 23-43 9-35-4 3-16-3-25-13-10-11-13-22-8-25s15 1 22 9c18 22 27 19 35-12 5-23 0-32-36-63-52-45-38-61 15-18l38 31 19-24c18-24 17-24-17-52-42-35-35-56 8-24l30 22 22-30c41-57 121-138 151-152 17-8 46-23 66-33 65-34 190-53 302-47 56 4 111 8 123 10 48 7 133 60 186 114 72 74 98 137 105 258 9 149-29 498-77 710-5 22-12 58-15 80-6 38-22 101-66 245-10 36-19 76-19 88s-4 30-9 40c-5 9-17 37-27 62-22 53-81 138-138 198-68 71-120 98-235 121-57 12-109 20-115 19s-33-3-61-5zm157-400c31-27 53-88 72-193 10-52 22-109 27-126s12-46 14-65c3-19 9-59 14-89s16-96 24-145c9-50 20-118 26-150 26-148 31-195 34-272 2-70-1-85-19-110-19-25-27-28-75-27-86 1-104 14-143 96-19 40-42 109-51 153s-30 143-47 220c-16 77-32 165-35 195-2 30-9 59-14 64-5 6-9 28-9 50 0 23-5 68-10 101-18 100-15 259 5 288 21 32 36 37 108 32 39-2 65-9 79-22z"/><path fill="#ffffff" d="M10716 1491c-10-11-13-22-8-25s17 3 26 13c10 11 13 22 8 25s-17-3-26-13zM10746 1411c-32-32-54-61-48-64 10-7 115 79 120 98 8 32-19 19-72-34zM10752 1308c-28-22-49-44-46-49 7-12 29 1 78 43 57 50 30 54-32 6zM10770 1211c-30-26-49-50-44-54 5-3 34 16 64 42s49 50 43 54c-5 3-34-15-63-42zM10830 1159c-91-74-110-91-105-100 4-5 37 16 76 47 38 31 66 60 63 65-7 11-4 12-34-12zM10806 1035c-16-13-24-25-18-29 6-3 23 4 38 17 36 31 18 42-20 12zM10832 948c-52-41-63-75-14-39 63 46 85 68 75 74-6 4-34-12-61-35zM10837 844c-31-25-55-50-51-55 3-5 32 11 65 37 33 25 57 50 54 55-8 12-2 15-68-37zM10885 776c-21-18-34-35-29-39 5-3 27 9 49 27 21 18 34 35 29 39-5 3-27-9-49-27zM10886 674c-24-21-36-38-30-43 5-6 25 4 48 25 24 21 36 38 30 43-5 6-25-4-48-25zM10891 571c-19-16-30-31-24-34 5-3 25 6 43 22 19 15 29 30 24 33-5 4-25-6-43-21zM1202 1938c-62-49-59-72 4-26 53 38 68 54 57 61-5 3-32-13-61-35zM4472 1938c-62-49-59-72 4-26 53 38 68 54 57 61-5 3-32-13-61-35zM6687 1943c-26-19-45-39-42-43 6-10 65 22 89 49 31 34 2 30-47-6zM2445 1954c-99-21-169-65-226-144-26-36-48-75-48-88-1-13-7-35-14-50-18-36-21-181-7-295 38-299 63-449 105-637 13-58 27-123 31-145s20-70 36-107c15-37 28-74 28-83s6-29 14-43c8-15 29-56 46-92 78-159 193-219 425-221 111-1 254 16 269 31 6 6 16 10 24 10 31 0 112 72 133 118 20 44 21 59 15 227-5 184-14 248-38 271-15 15-220 26-283 15l-40-6 1-50c0-28 4-91 9-142 7-90 7-92-18-117-28-28-82-35-118-15-35 18-94 165-134 329-20 85-41 171-45 190-44 181-85 522-71 596 12 65 38 83 119 84 58 0 67-3 92-30 31-33 66-135 78-227 9-68 6-73-49-73-41 0-44-16-30-129 15-117 30-179 44-188 14-8 394-6 407 2 12 8 13 121 0 200-7 50-29 179-53 320-7 36-41 164-50 185-3 8-15 40-27 70-26 73-102 158-172 193-106 54-306 72-453 41zM6001 1920c-69-54-55-71 14-19 30 23 52 45 49 50-8 13-7 13-63-31zM8134 1937c-36-31-18-42 20-12 16 13 24 25 18 29-6 3-23-4-38-17zM9395 1950c-39-15-48-37-42-99 4-32 11-70 17-82 5-13 14-58 20-99s13-93 15-115c3-22 7-49 8-60 2-11 6-29 10-40 11-33 38-188 38-215-1-13 6-47 15-74 10-28 25-93 35-146 10-52 22-115 28-140 5-25 19-97 31-160 11-63 25-137 30-163 6-27 10-62 10-78v-29h-133c-162 0-172-5-162-91 4-30 10-65 15-79 7-21 19-76 36-167 10-50 25-52 505-47 473 5 467 4 470 54 1 22-28 199-49 290l-8 35-137 3c-121 2-137 5-138 20-3 41-29 171-48 242-5 19-17 80-27 135s-21 104-26 110c-4 5-8 22-8 39 0 16-4 43-9 60-9 30-27 125-51 271-6 39-24 131-40 205-15 74-38 191-51 259-15 83-29 131-41 143-15 15-36 18-142 18-68 0-130 2-138 4-7 3-22 1-33-4zM11231 1906c-29-29-49-56-44-59 13-8 125 92 117 104-9 16-18 10-73-45zM97 1943c-40-6-53-45-31-91 9-19 17-58 18-86 2-28 8-61 14-73 7-12 12-41 12-64 0-22 7-62 15-88 11-37 30-131 50-261 19-118 30-178 45-245 10-44 23-115 29-159 6-43 14-82 17-87 3-6 9-35 14-67 5-31 16-102 25-157s20-127 25-160 14-85 20-115c17-83 18-91 26-148 5-36 13-56 25-63 11-5 91-8 190-7 147 3 173 5 182 20 8 11 6 46-7 120-9 56-24 146-32 198-25 163-33 214-43 260-5 25-11 64-15 88l-6 42h238l5-32c3-18 9-55 13-83 3-27 10-54 14-60 4-5 15-71 25-145 9-74 23-164 31-200s14-75 14-87 5-25 10-28c6-3 10-19 10-34 0-56 22-63 188-59 177 4 192 10 186 80-2 23-8 56-13 73-5 16-9 44-9 62-1 42-40 276-57 338-7 28-16 75-19 105-2 30-12 89-21 130s-18 100-21 130-9 69-14 85c-9 31-29 137-36 190-2 17-10 62-18 100-16 83-38 207-71 405-19 119-27 148-45 162-19 15-42 17-187 15-205-3-205-3-174-140 6-27 13-67 15-90 8-83 37-263 51-312 7-27 16-77 20-110s9-69 11-80c5-19-1-20-109-22l-115-1-11 51c-7 29-13 68-15 87-4 39-29 148-51 225-18 62-41 189-51 274-5 42-14 71-28 87-20 24-27 25-166 28-80 2-158 1-173-1zM1465 1940c-42-4-52-9-63-33-10-20-11-35-3-60 6-17 22-99 36-182 14-82 29-166 35-185s17-78 25-130 20-120 26-150c11-62 36-223 44-289 3-25 12-64 20-88s15-56 15-71 11-88 24-162c14-74 32-180 42-235 30-179 47-236 78-259 25-19 41-21 194-21h167l-2 75c-1 41-9 104-17 140s-25 126-36 200-30 173-40 220c-11 47-22 110-24 140-3 30-12 84-21 120-26 109-62 306-69 378-3 20-21 132-41 247-20 116-42 242-49 280l-12 70h-139c-77 0-162-2-190-5zM3367 1943c-40-6-53-45-31-91 9-19 17-58 18-86 2-28 8-61 14-73 7-12 12-41 12-64 0-22 7-62 15-88 11-37 30-131 50-261 19-118 30-178 45-245 10-44 23-115 29-159 6-43 14-82 17-87 3-6 9-35 14-67 5-31 16-102 25-157s20-127 25-160 14-85 20-115c17-83 18-91 26-148 5-36 13-56 25-63 11-5 91-8 190-7 147 3 173 5 182 20 8 11 6 46-7 120-9 56-24 146-32 198-25 163-33 214-43 260-5 25-11 64-15 88l-6 42h238l5-32c3-18 9-55 13-83 3-27 10-54 14-60 4-5 15-71 25-145 9-74 23-164 31-200s14-75 14-87 5-25 10-28c6-3 10-19 10-34 0-56 22-63 188-59 177 4 192 10 186 80-2 23-8 56-13 73-5 16-9 44-9 62-1 42-40 276-57 338-7 28-16 75-19 105-2 30-12 89-21 130s-18 100-21 130-9 69-14 85c-9 31-29 137-36 190-2 17-10 62-18 100-16 83-38 207-71 405-19 119-27 148-45 162-19 15-42 17-187 15-205-3-205-3-174-140 6-27 13-67 15-90 8-83 37-263 51-312 7-27 16-77 20-110s9-69 11-80c5-19-1-20-109-22l-115-1-11 51c-7 29-13 68-15 87-4 39-29 148-51 225-18 62-41 189-51 274-5 42-14 71-28 87-20 24-27 25-166 28-80 2-158 1-173-1zM4908 1942c-56-2-70-6-79-23-10-20-6-469 7-729 2-52 7-192 9-310 10-412 27-785 36-795 15-15 326-14 347 1 20 15 21 60 8 294-4 85-10 191-12 235-2 43-7 138-12 210-17 239-15 252 20 160 9-22 28-66 42-97s26-61 26-66 7-15 15-22 15-22 15-34 11-46 25-74c14-29 25-56 25-60 0-5 9-27 20-50 11-22 20-46 20-52 0-5 4-18 9-28 15-29 29-65 41-105 7-22 18-51 26-65 8-15 14-33 14-40s12-38 26-68l25-54 70-1c38 0 89-1 114-1 24-1 50 4 57 10 11 8 13 92 11 404-1 216 1 411 4 433l6 40 14-45c8-25 21-70 29-100s19-64 24-75c14-28 59-161 74-220 7-27 20-64 28-80 9-17 19-49 23-70 7-42 30-114 65-205 12-30 28-76 36-101 27-87 35-90 235-87l174 3 3 28c2 16-12 72-31 125-19 54-47 133-62 177s-31 85-35 90c-4 6-17 42-29 80-12 39-29 82-37 97-8 14-14 34-14 43s-6 29-14 43c-20 39-34 73-41 102-4 14-12 39-20 55-7 17-20 48-30 70-9 22-23 51-30 65s-16 43-20 65c-6 39-23 82-50 135-7 14-29 75-49 135-21 61-46 129-57 152-10 24-19 48-19 54 0 15-32 112-41 124-4 6-13 33-19 59-6 27-20 61-30 77-11 15-20 33-20 41 0 7-7 24-16 36-14 21-22 22-149 22-74 0-136-4-140-9-3-5-7-33-10-63-2-29-9-100-14-158-9-112-14-301-12-542 0-82-3-148-7-148s-14 17-21 38c-15 42-34 89-79 192-6 14-21 48-33 75-11 28-32 72-45 98-13 27-24 56-24 66 0 9-4 21-9 27-4 5-13 23-19 39-6 17-22 62-36 100-15 39-35 97-47 130-27 82-50 125-74 138-20 11-112 15-237 9z"/><path fill="#ffffff" d="M6170 1936c-16-16-12-42 15-100 14-30 25-58 25-63s9-25 20-45c10-20 36-79 56-130s40-97 44-103c5-5 17-37 29-70 11-33 29-78 41-100 11-21 20-46 20-55s4-20 9-26c4-5 27-58 50-119 23-60 65-166 92-235s49-129 49-134c0-8 13-40 50-121 10-22 24-57 30-77s17-41 25-48c7-6 16-22 19-36 4-13 17-48 30-77 13-28 29-67 37-86s31-68 52-110c20-41 37-80 37-87 0-31 32-38 196-40 160-3 164-3 178 19 14 21 30 313 41 702 4 161 14 502 21 705 12 361 12 425 2 437-8 10-56 13-179 13-156 0-169-1-179-19-5-11-10-73-10-139 0-142 13-132-166-132h-122l-12 33c-7 17-25 59-40 92s-37 83-48 110l-21 50h-191c-107 0-195-4-200-9zm801-643c2-9 6-135 12-376 2-98 2-175-1-172s-17 41-32 85-30 83-33 87c-4 3-7 13-7 22-1 9-9 34-20 56s-19 46-20 54c0 7-16 60-35 117s-35 108-35 113c0 16 168 30 171 14zM7662 1939c-11-4-23-13-27-19-7-12 11-172 26-233 6-21 12-55 15-75 2-20 7-44 10-53 2-10 7-30 9-45 24-141 38-212 46-230 6-11 9-24 8-30-1-5 1-21 5-36 5-15 1-72-9-135-16-98-21-133-40-273-4-24-9-48-11-52-10-16-53-271-48-280 3-4-2-35-10-70-25-107-42-306-27-321 8-8 62-13 170-15l158-4 25 30c21 25 26 45 33 118 4 49 8 103 10 121 2 17 8 46 13 65 6 18 16 90 23 160l12 128 55-113c53-107 90-188 117-252 65-154 94-211 119-234 22-21 32-22 187-22 137 1 166 4 181 18 23 21 15 71-19 121-13 20-26 47-30 61-6 29-29 74-55 109-9 13-24 46-33 73-10 28-23 53-31 56s-14 11-14 19-10 31-23 52c-12 20-30 53-39 72-28 62-90 185-99 195-4 6-29 51-54 100-26 50-57 104-69 120-22 29-66 116-66 131 0 4-6 15-13 23-15 18-41 120-57 221-6 36-17 88-25 115-9 28-22 86-29 130-8 44-23 121-33 170l-19 90h-161c-89 1-170-2-181-6zM12090 1935c-13-16-6-74 46-385 8-47 21-125 29-175 8-49 22-120 31-157s18-87 19-110c2-24 10-72 18-108 9-35 13-68 11-72-2-3 0-9 5-12 5-4 12-25 16-49 4-23 11-55 15-72 5-16 17-84 26-150 20-145 29-198 43-250 14-57 28-144 35-233 2-23 11-54 20-67 16-25 17-25 204-27 287-2 543 2 554 8 18 11-27 323-50 346-4 4-97 11-205 15-221 7-201-2-211 88-3 22-12 88-22 148-9 59-14 110-11 113 2 3 65 6 137 7 160 2 160 3 142 104-7 37-21 109-30 160s-22 97-28 103c-7 7-61 11-147 11-119-1-136 1-142 17-10 23-51 235-60 305l-7 57 133 2c74 2 157 3 185 3 64 0 86 16 74 53-5 15-14 61-20 102-21 157-31 205-43 217-9 8-115 13-383 18-332 5-372 4-384-10zM13097 1932c-19-21-26-70-12-91 4-7 20-87 35-179 16-92 36-194 44-226 9-32 19-93 22-135s12-101 20-131c7-30 16-71 19-90s14-78 25-130c12-52 25-120 30-150 4-30 16-98 25-150 10-52 21-122 25-155s11-77 15-98c5-23 4-37-2-35-15 5-134-82-127-93 3-5 35 11 70 37 36 25 67 44 68 42 3-3 10-46 36-197 12-75 28-81 194-80 77 1 155 4 171 8 29 6 30 9 29 56-1 28-11 100-22 160-12 61-30 162-42 225-11 63-29 151-39 195s-24 118-31 165c-6 47-21 137-32 200-45 262-58 345-64 415l-7 75 169 2 169 3 1 40c0 22-3 58-7 80s-15 78-24 125c-25 132 6 122-397 128-334 4-344 4-361-16zM13971 1911c-24-21-40-41-35-44 6-3 30 11 54 32s39 40 34 43c-5 4-29-11-53-31zM14085 1943c-32-8-45-23-45-53 0-21-10-37-40-60-47-38-44-61 4-25 21 16 33 20 34 12 1-6 6-34 11-62 35-185 53-288 61-345 5-36 16-110 25-165 8-55 18-118 21-140s12-71 20-108c8-38 12-72 10-75-2-4 2-33 10-64 8-32 26-119 39-195s31-174 39-218c7-44 14-87 14-95 0-13 18-119 38-220 4-19 11-41 17-47 14-18 340-18 355 0 11 13 27 92 37 177 4 30 13 91 20 135 8 44 16 107 20 140 3 33 10 80 15 105s14 86 20 135c17 146 43 299 50 308 4 5 29-33 54-85 26-51 54-104 61-118 8-14 21-38 29-55 26-54 56-109 77-145 12-19 56-100 98-180 43-80 87-163 99-185s37-70 56-108c19-37 44-83 56-102l22-35h157c186 0 198 4 183 66-6 21-14 71-17 109-4 39-16 106-26 150s-19 99-19 123-6 55-14 70c-7 15-19 61-26 102-6 41-22 127-35 190s-28 157-34 208c-5 51-13 97-16 103-4 5-9 35-11 67-6 79-10 106-23 144-9 30-43 225-57 323-6 46-10 68-26 148-9 48-16 61-36 68-14 5-93 8-176 7l-151-3-12-27c-11-22-9-48 13-170 14-78 27-155 29-170 2-14 7-41 13-60 6-18 13-57 17-87 3-30 22-135 41-234 19-98 33-182 30-185-5-4-55 96-109 218-17 39-65 140-176 369-14 29-35 59-46 66-24 15-184 12-214-5-21-11-47-105-61-225-4-38-11-77-14-85-8-22-46-318-46-364 0-72-8-33-29 139-12 94-26 199-31 235-6 36-15 103-20 150s-14 112-20 145c-5 33-14 98-20 144-12 96-29 136-62 145-27 7-253 6-283-1zM13026 1921c-10-11-13-22-8-25s17 3 26 13c10 11 13 22 8 25s-17-3-26-13zM3127 1885c-27-23-44-45-39-49 6-3 32 13 58 37s43 46 38 49-31-13-57-37zM5304 1887c-62-57-44-68 20-12 28 24 44 45 38 49-5 3-32-13-58-37z"/><path fill="#ffffff" d="M14570 1903c-58-44-90-76-84-85 5-8 20 2 108 75 40 33 18 42-24 10zM6735 1876c-26-23-44-45-39-49 5-3 32 14 59 37 26 23 44 45 39 49-5 3-32-14-59-37zM15588 1873c-32-25-55-50-52-55 6-9 34 9 93 60 57 48 20 43-41-5zM580 1861c-30-26-50-50-44-53 5-3 33 16 63 42 29 26 49 50 44 53-6 4-34-15-63-42zM3850 1861c-30-26-50-50-44-53 5-3 33 16 63 42 29 26 49 50 44 53-6 4-34-15-63-42zM11321 1866c-18-19-29-36-23-39 5-4 23 9 41 27 18 19 29 36 23 39-5 4-23-9-41-27zM12976 1881c-10-11-13-22-8-25s17 3 26 13c10 11 13 22 8 25s-17-3-26-13zM7475 1836c-32-29-54-55-49-59 6-3 37 18 69 47s54 55 49 59c-6 3-37-18-69-47zM8159 1852c-55-51-37-61 20-12 26 23 39 40 32 44-6 4-29-11-52-32zM9866 1844c-31-25-54-50-50-55 3-5 24 5 46 23s49 40 60 49c13 10 17 19 10 23-5 3-35-15-66-40zM1225 1846c-21-18-34-35-29-39 5-3 27 9 49 27 21 18 34 35 29 39-5 3-27-9-49-27zM4495 1846c-21-18-34-35-29-39 5-3 27 9 49 27 21 18 34 35 29 39-5 3-27-9-49-27zM6065 1856c-15-13-24-25-19-29 6-3 23 4 39 17 15 13 24 25 19 29-6 3-23-4-39-17zM1947 1812c-21-21-34-41-31-45 9-9 95 63 88 74-9 15-19 10-57-29zM3172 1817c-18-18-29-36-26-40 9-9 85 53 78 64-9 15-19 11-52-24zM6781 1811c-24-21-40-41-35-44 6-3 30 11 54 32s39 40 34 43c-5 4-29-11-53-31zM14857 1819c-26-21-35-35-28-42 11-11 93 52 85 65s-18 9-57-23zM13001 1799c-28-22-49-45-45-50 7-11 27 0 78 44 58 49 28 55-33 6zM5325 1796c-22-19-34-35-28-39s27 8 48 27c21 18 34 35 29 39-5 3-27-9-49-27zM597 1773c-31-24-55-49-52-54 8-12 28 0 84 49 63 55 38 59-32 5zM3867 1773c-31-24-55-49-52-54 8-12 28 0 84 49 63 55 38 59-32 5zM11333 1777c-28-23-50-45-47-49 7-11 30 3 78 44 57 50 31 53-31 5zM14541 1770c-24-20-39-40-33-44 5-3 29 11 53 32 23 21 38 41 33 44s-29-11-53-32zM14930 1771c-24-21-39-40-34-44 6-3 30 11 54 32s39 40 34 44c-6 3-30-11-54-32zM15626 1791c-10-11-13-22-8-25s17 3 26 13c10 11 13 22 8 25s-17-3-26-13zM1266 1781c-10-11-13-22-8-25s17 3 26 13c10 11 13 22 8 25s-17-3-26-13zM4536 1781c-10-11-13-22-8-25s17 3 26 13c10 11 13 22 8 25s-17-3-26-13zM6876 1781c-10-11-13-22-8-25s17 3 26 13c10 11 13 22 8 25s-17-3-26-13zM9884 1757c-62-57-43-68 21-13 29 25 44 45 38 49s-33-12-59-36zM6071 1766c-13-13-18-26-13-30 5-3 19 5 31 18 13 13 18 26 13 30-5 3-19-5-31-18zM8175 1759c-42-32-51-44-38-52 5-3 28 12 52 32 53 46 42 61-14 20zM5381 1739c-28-26-41-43-35-49s25 6 53 34c54 55 41 67-18 15zM6812 1730c-23-19-30-30-22-35 7-4 25 5 42 23 39 38 23 48-20 12zM3206 1731c-10-11-13-22-8-25s17 3 26 13c10 11 13 22 8 25s-17-3-26-13zM7461 1716c-18-19-29-36-23-39 5-4 23 9 41 27 18 19 29 36 23 39-5 4-23-9-41-27zM621 1681c-30-26-50-51-44-54 5-3 34 15 63 42 30 26 50 50 44 53-5 4-33-15-63-41zM3891 1681c-30-26-50-51-44-54 5-3 34 15 63 42 30 26 50 50 44 53-5 4-33-15-63-41zM11365 1696c-21-18-34-35-29-39 5-3 27 9 49 27 21 18 34 35 29 39-5 3-27-9-49-27zM6083 1667c-28-23-50-45-47-49 7-11 30 3 78 44 57 50 31 53-31 5zM3260 1673c-57-43-90-76-84-84 4-8 117 72 129 91 13 21-14 17-45-7zM8170 1651c-29-26-50-50-44-53 5-4 33 15 63 41s50 50 45 54c-6 3-34-16-64-42zM9898 1653c-32-25-55-50-52-55 6-9 34 9 93 60 57 48 20 43-41-5zM14536 1661c-21-21-34-41-29-44 6-4 27 11 47 32 21 21 34 41 29 44-6 4-27-11-47-32zM1235 1646c-27-23-44-45-39-49 6-3 32 13 59 37 27 23 44 45 39 49-6 3-32-13-59-37zM4505 1646c-27-23-44-45-39-49 6-3 32 13 59 37 27 23 44 45 39 49-6 3-32-13-59-37zM1965 1618c-48-39-56-50-38-55 13-4 108 83 97 89-5 4-32-12-59-34zM7460 1611c-29-26-50-50-44-53 5-4 33 15 63 41s50 50 45 54c-6 3-34-16-64-42zM5386 1631c-10-11-13-22-8-25s17 3 26 13c10 11 13 22 8 25s-17-3-26-13zM6166 1631c-10-11-13-22-8-25s17 3 26 13c10 11 13 22 8 25s-17-3-26-13zM11411 1626c-13-13-18-26-13-30 5-3 19 5 31 18 13 13 18 26 13 30-5 3-19-5-31-18zM15016 1621c-10-11-13-22-8-25s17 3 26 13c10 11 13 22 8 25s-17-3-26-13zM15647 1602c-21-21-35-41-31-45 9-8 94 64 88 75-9 14-19 9-57-30zM625 1586c-27-23-44-45-39-49 6-3 32 13 59 37 27 23 44 45 39 49-6 3-32-13-59-37zM3895 1586c-27-23-44-45-39-49 6-3 32 13 59 37 27 23 44 45 39 49-6 3-32-13-59-37zM8207 1574c-81-67-79-92 2-30 66 51 85 72 73 80-5 3-39-20-75-50zM1266 1566c-37-32-55-55-48-60 6-3 34 14 64 40 57 51 64 59 51 67-5 3-35-18-67-47zM4536 1566c-37-32-55-55-48-60 6-3 34 14 64 40 57 51 64 59 51 67-5 3-35-18-67-47zM9922 1568c-78-64-71-84 8-23 64 50 75 61 62 69-5 3-36-18-70-46zM6101 1576c-22-23-29-36-21-41 6-4 15-3 19 1 3 5 17 21 29 35 35 40 10 44-27 5zM3235 1546c-26-23-44-45-38-49 5-3 31 13 58 37 27 23 44 45 39 48-5 4-32-13-59-36zM14541 1571c-14-11-19-21-13-25 5-3 20 2 33 12 29 24 11 36-20 13zM1986 1525c-27-23-45-45-39-48 5-3 31 13 58 37 27 23 45 45 39 48-5 3-31-13-58-37zM5400 1545c-24-26-19-55 6-34 22 18 35 47 25 53-4 3-18-5-31-19zM6157 1515c-27-25-43-46-37-50 13-8 112 74 104 86-9 15-17 10-67-36zM7465 1506c-21-18-34-35-29-38s26 9 48 27c21 18 34 35 29 38-6 4-27-8-48-27zM11411 1516c-13-13-18-26-13-30 5-3 19 5 31 18 13 13 18 26 13 30-5 3-19-5-31-18zM655 1501c-41-36-58-58-47-65 5-3 28 14 51 38 47 48 44 70-4 27zM3925 1501c-41-36-58-58-47-65 5-3 28 14 51 38 47 48 44 70-4 27zM15640 1491c-29-25-40-40-32-45 7-4 29 9 53 32 55 51 36 62-21 13zM2631 1486c-18-19-29-36-23-39 5-4 23 9 41 27 18 19 29 36 23 39-5 4-23-9-41-27zM3305 1497c-84-59-95-69-90-78 8-12 49 11 99 54 44 38 37 56-9 24zM9927 1473c-31-24-55-49-52-54 8-12 29 0 84 49 63 55 38 59-32 5zM13679 1472c-69-63-50-75 20-13 32 29 50 50 43 54-6 4-34-15-63-41zM1276 1465c-27-23-45-45-39-48 5-3 31 13 58 37 27 23 45 45 39 48-5 3-31-13-58-37zM4546 1465c-27-23-45-45-39-48 5-3 31 13 58 37 27 23 45 45 39 48-5 3-31-13-58-37zM8222 1480c-18-16-30-35-26-41 4-7 19 1 40 22 18 18 31 36 28 41-7 11-5 12-42-22zM6206 1451c-21-21-34-41-29-44 6-4 27 11 47 32 21 21 34 41 29 44-6 4-27-11-47-32zM11356 1471c-10-11-13-22-8-25s17 3 26 13c10 11 13 22 8 25s-17-3-26-13zM1991 1426c-29-30-49-56-44-59s33 18 62 47c29 30 49 56 44 59s-33-18-62-47zM12685 1436c-22-19-34-35-28-39s27 8 48 27c21 18 34 35 29 39-5 3-27-9-49-27zM7475 1416c-26-23-44-45-39-49 5-3 32 14 59 37 26 23 44 45 39 49-5 3-32-14-59-37zM1317 1395c-27-23-44-45-39-49 6-3 32 13 58 37s43 46 38 49-31-13-57-37zM4587 1395c-27-23-44-45-39-49 6-3 32 13 58 37s43 46 38 49-31-13-57-37zM15689 1423c-42-28-79-66-73-75 3-5 20 4 38 19 17 15 42 35 56 44 13 9 19 18 13 22-5 3-21-1-34-10zM2641 1389c-36-29-49-45-42-52s25 3 56 31c24 23 45 45 46 48 3 17-13 10-60-27zM13700 1381c-31-27-49-50-43-54 5-3 34 15 63 42 31 27 49 50 43 54-5 3-34-15-63-42zM646 1385c-21-18-34-35-29-38 6-4 27 8 48 27 21 18 34 35 29 38s-26-9-48-27zM3916 1385c-21-18-34-35-29-38 6-4 27 8 48 27 21 18 34 35 29 38s-26-9-48-27zM9950 1381c-24-21-39-40-34-44 6-3 30 11 54 32s39 40 34 44c-6 3-30-11-54-32zM11395 1396c-21-17-25-25-16-31 8-4 23 2 38 18 33 32 15 43-22 13zM6136 1391c-10-11-13-22-8-25s17 3 26 13c10 11 13 22 8 25s-17-3-26-13zM3266 1361c-21-21-34-41-29-44 6-4 27 11 47 32 21 21 34 41 29 44-6 4-27-11-47-32zM2012 1338c-34-28-59-54-56-59 6-10 36 10 98 63 63 55 28 51-42-4zM11466 1355c-20-16-25-25-16-30 7-4 22 3 37 18 33 32 17 42-21 12zM12681 1330c-24-20-39-40-33-44 5-3 29 11 53 32 23 21 38 41 33 44s-29-11-53-32zM2680 1325c-23-23-31-38-24-45s21 2 44 25 31 38 24 45-21-2-44-25zM7458 1292c-82-66-81-91 1-28 64 50 86 72 74 79-4 2-38-21-75-51zM8270 1301c-30-26-49-50-44-54 5-3 34 16 64 42s49 50 43 54c-5 3-34-15-63-42zM690 1311c-19-15-29-30-24-33 5-4 25 6 43 21 19 16 30 31 24 34-5 3-25-6-43-22zM3960 1311c-19-15-29-30-24-33 5-4 25 6 43 21 19 16 30 31 24 34-5 3-25-6-43-22zM9975 1296c-27-23-45-45-39-48 5-3 31 13 58 37 27 23 45 45 39 48-5 3-31-13-58-37zM12777 1295c-32-25-55-50-52-56 4-5 33 12 65 37 33 26 57 51 54 55-7 12-2 15-67-36zM15665 1296c-27-23-44-45-39-49 6-3 32 13 59 37 27 23 44 45 39 49-6 3-32-13-59-37zM3304 1287c-26-24-43-46-38-50 6-3 32 13 59 37 30 26 44 45 38 49s-33-12-59-36zM1306 1281c-15-16-23-31-18-35 5-3 21 8 36 23 15 16 23 31 18 35-5 3-21-8-36-23zM4576 1281c-15-16-23-31-18-35 5-3 21 8 36 23 15 16 23 31 18 35-5 3-21-8-36-23zM6249 1272c-55-51-37-62 20-13 28 24 40 40 33 45-7 4-30-10-53-32zM12871 1266c-24-24-39-46-34-49 6-4 29 13 52 37 24 24 39 46 34 49-6 4-29-13-52-37zM2045 1256c-27-23-44-45-39-48 5-4 32 13 59 36 26 23 44 45 38 49-5 3-31-13-58-37zM11479 1252c-69-63-50-74 20-12 30 27 49 50 43 54-6 3-34-16-63-42zM13687 1265c-25-22-34-36-26-40 6-4 26 7 46 27 46 46 29 56-20 13zM12978 1253c-21-14-35-29-32-34 6-10 58 17 75 38 19 23-7 20-43-4zM1340 1201c-35-32-59-60-54-63 5-4 38 19 74 51 35 32 59 60 54 63-5 4-38-19-74-51zM4610 1201c-35-32-59-60-54-63 5-4 38 19 74 51 35 32 59 60 54 63-5 4-38-19-74-51zM6270 1181c-35-31-59-60-54-64 6-3 39 20 74 52 35 31 59 60 54 64-6 3-39-20-74-52zM7457 1183c-37-30-65-59-61-64 5-9 32 9 113 79 64 54 16 41-52-15zM8296 1221c-10-11-13-22-8-25s17 3 26 13c10 11 13 22 8 25s-17-3-26-13zM9986 1201c-21-21-34-41-29-44 6-4 27 11 47 32 21 21 34 41 29 44-6 4-27-11-47-32zM13726 1184c-37-30-64-59-61-65 7-10 35 8 104 69 70 61 32 58-43-4zM2651 1186c-18-19-29-36-23-39 5-4 23 9 41 27 18 19 29 36 23 39-5 4-23-9-41-27zM3299 1172c-69-63-50-74 20-12 30 27 49 50 43 54-6 3-34-16-63-42zM13005 1166c-29-25-44-45-38-49s33 12 59 36c62 57 43 68-21 13zM2047 1153c-32-23-45-39-38-46 11-11 104 60 95 74-7 11-2 14-57-28zM11504 1168c-52-39-83-71-78-80 5-7 40 18 117 83 5 4 4 9-1 13-5 3-23-4-38-16zM8331 1141c-25-22-40-41-34-44 6-4 30 10 54 31 56 50 37 62-20 13zM1388 1137c-15-12-39-30-53-41-18-12-24-21-16-29 12-12 114 69 105 84-7 11-4 12-36-14zM4658 1137c-15-12-39-30-53-41-18-12-24-21-16-29 12-12 114 69 105 84-7 11-4 12-36-14zM6307 1104c-31-25-55-50-51-55 3-5 32 11 65 37 33 25 57 50 54 55-8 11-1 15-68-37zM13086 1121c-10-11-13-22-8-25s17 3 26 13c10 11 13 22 8 25s-17-3-26-13zM15696 1111c-15-16-23-31-18-35 5-3 21 8 36 23 15 16 23 31 18 35-5 3-21-8-36-23zM7447 1074c-82-68-79-92 4-28 69 55 83 70 71 78-5 3-39-20-75-50zM2111 1096c-13-13-18-26-13-30 5-3 19 5 31 18 13 13 18 26 13 30-5 3-19-5-31-18zM11512 1069c-29-22-50-45-47-50 6-9 29 5 89 54 51 41 13 37-42-4zM2651 1076c-13-13-18-26-13-30 5-3 19 5 31 18 13 13 18 26 13 30-5 3-19-5-31-18zM13011 1061c-24-21-40-41-35-44 6-3 30 11 54 32s39 40 34 43c-5 4-29-11-53-31zM13711 1066c-18-19-29-36-23-39 5-4 23 9 41 27 18 19 29 36 23 39-5 4-23-9-41-27zM8366 1061c-10-11-13-22-8-25s17 3 26 13c10 11 13 22 8 25s-17-3-26-13zM2045 1046c-15-13-24-25-19-29 6-3 23 4 39 17 15 13 24 25 19 29-6 3-23-4-39-17zM6349 1032c-56-50-37-62 20-13 25 22 40 41 34 44-6 4-30-10-54-31zM10029 1022c-69-63-50-75 21-13 33 29 49 50 43 54s-35-15-64-41zM15736 1041c-10-11-13-22-8-25s17 3 26 13c10 11 13 22 8 25s-17-3-26-13zM1386 1021c-15-16-23-31-18-35 5-3 21 8 36 23 15 16 23 31 18 35-5 3-21-8-36-23zM4656 1021c-15-16-23-31-18-35 5-3 21 8 36 23 15 16 23 31 18 35-5 3-21-8-36-23zM8415 996c-27-23-44-45-39-48 5-4 32 13 59 36 26 23 44 45 38 49-5 3-31-13-58-37zM13091 1021c-14-11-19-21-13-25 5-3 20 2 33 12 29 24 11 36-20 13zM13781 1016c-13-13-18-26-13-30 5-3 19 5 31 18 13 13 18 26 13 30-5 3-19-5-31-18zM2136 1011c-10-11-13-22-8-25s17 3 26 13c10 11 13 22 8 25s-17-3-26-13zM2687 1002c-15-16-24-31-21-35 9-9 75 43 68 54-9 15-19 11-47-19zM7457 974c-31-25-55-50-51-55 3-5 32 11 65 37 33 25 57 50 54 55-8 11-1 15-68-37zM11511 961c-36-32-60-60-55-63 9-6 127 89 133 107 7 24-19 10-78-44zM15686 1001c-10-11-13-22-8-25s17 3 26 13c10 11 13 22 8 25s-17-3-26-13zM2065 956c-22-19-34-35-28-39s27 8 48 27c21 18 34 35 29 39-5 3-27-9-49-27zM10052 939c-34-28-60-54-57-60 8-12 29 0 89 54 70 61 44 66-32 6zM13726 971c-10-11-13-22-8-25s17 3 26 13c10 11 13 22 8 25s-17-3-26-13zM15748 945c-62-48-73-61-60-69 5-3 33 15 63 40 73 62 72 61 62 67-5 3-34-14-65-38zM6361 931c-24-21-40-41-35-44 6-3 30 11 54 32s39 40 34 43c-5 4-29-11-53-31zM1381 916c-18-19-29-36-23-39 5-4 23 9 41 27 18 19 29 36 23 39-5 4-23-9-41-27zM2715 930c-12-14-15-24-9-30 7-7 17-4 29 10s15 24 9 30c-7 7-17 4-29-10zM4651 916c-18-19-29-36-23-39 5-4 23 9 41 27 18 19 29 36 23 39-5 4-23-9-41-27zM8466 931c-10-11-13-22-8-25s17 3 26 13c10 11 13 22 8 25s-17-3-26-13zM2107 883c-66-53-67-78-1-31 54 39 78 64 67 71-5 3-35-15-66-40zM13778 907c-15-12-40-31-55-43-14-11-22-23-16-27 12-8 125 72 117 84-8 13-16 11-46-14zM11525 866c-32-29-54-55-49-59 6-3 37 18 69 47s54 55 49 59c-6 3-37-18-69-47zM3156 846c-33-29-55-55-50-59 6-3 37 18 69 47s55 55 49 58c-5 4-36-17-68-46zM3277 843c-37-30-64-60-61-64 6-10 36 10 103 69 71 61 32 57-42-5zM7465 876c-15-13-24-25-19-29 6-3 23 4 39 17 15 13 24 25 19 29-6 3-23-4-39-17zM6395 856c-22-19-34-35-28-39s27 8 48 27c22 19 34 35 28 39s-27-8-48-27zM8490 851c-26-22-39-40-33-44s30 10 54 31c23 21 38 41 33 45-6 3-30-11-54-32zM2736 831c-15-16-23-31-18-35 5-3 21 8 36 23 15 16 23 31 18 35-5 3-21-8-36-23zM15735 826c-21-18-34-35-29-39 5-3 27 9 49 27 21 18 34 35 29 39-5 3-27-9-49-27zM3395 826c-21-17-25-25-16-31 8-4 23 2 38 18 33 32 15 43-22 13zM7401 826c-13-13-18-26-13-30 5-3 19 5 31 18 13 13 18 26 13 30-5 3-19-5-31-18zM13791 811c-24-21-40-41-35-44 6-3 30 11 54 32s39 40 34 43c-5 4-29-11-53-31zM1396 821c-10-11-13-22-8-25s17 3 26 13c10 11 13 22 8 25s-17-3-26-13zM4666 821c-10-11-13-22-8-25s17 3 26 13c10 11 13 22 8 25s-17-3-26-13zM2130 791c-24-21-39-40-34-44 6-3 30 11 54 32s39 40 34 44c-6 3-30-11-54-32zM8535 776c-27-23-45-45-39-48 5-3 31 13 58 37 27 23 45 45 39 48-5 3-31-13-58-37zM11541 771c-30-26-50-51-44-54 5-3 34 15 63 42 30 26 50 50 44 53-5 4-33-15-63-41zM3326 771c-15-16-23-31-18-35 5-3 21 8 36 23 15 16 23 31 18 35-5 3-21-8-36-23zM1452 767c-12-13-19-26-16-30 9-8 64 34 58 45-8 13-19 9-42-15zM4722 767c-12-13-19-26-16-30 9-8 64 34 58 45-8 13-19 9-42-15zM10070 741c-26-22-39-40-33-44s30 10 54 31c23 21 38 41 33 45-6 3-30-11-54-32zM15761 740c-24-20-39-40-33-44 5-3 29 11 53 32 23 21 38 41 33 44s-29-11-53-32zM7414 727c-26-24-43-46-38-49s31 13 57 37c27 23 44 45 39 49-6 3-32-13-58-37zM761 736c-13-13-18-26-13-30 5-3 19 5 31 18 13 13 18 26 13 30-5 3-19-5-31-18zM2756 741c-10-11-13-22-8-25s17 3 26 13c10 11 13 22 8 25s-17-3-26-13zM4031 736c-13-13-18-26-13-30 5-3 19 5 31 18 13 13 18 26 13 30-5 3-19-5-31-18zM8589 722c-23-21-38-41-33-45 6-3 30 11 54 32 26 22 39 40 33 44s-30-10-54-31zM3367 699c-31-28-55-55-51-60 5-9 124 83 125 98 1 20-22 9-74-38zM13796 711c-21-21-34-41-29-44 6-4 27 11 47 32 21 21 34 41 29 44-6 4-27-11-47-32zM2131 690c-34-30-49-50-42-54 6-4 33 14 63 42 67 64 49 74-21 12zM1381 706c-13-13-18-26-13-30 5-3 19 5 31 18 13 13 18 26 13 30-5 3-19-5-31-18zM4651 706c-13-13-18-26-13-30 5-3 19 5 31 18 13 13 18 26 13 30-5 3-19-5-31-18zM12803 687c-60-57-43-68 21-12 31 26 45 45 37 49-6 4-31-12-58-37zM6442 681c-24-20-40-39-36-43 7-8 94 50 94 63 0 20-19 14-58-20zM10101 661c-64-56-54-79 11-25 47 40 62 60 51 67-5 3-32-16-62-42zM11536 664c-66-52-67-80 0-32 54 39 78 64 66 71-4 3-34-14-66-39zM14894 677c-48-44-31-55 20-12 24 20 34 35 28 39s-28-8-48-27zM801 671c-21-17-30-31-23-35 6-4 25 6 43 22 42 38 24 49-20 13zM2795 666c-21-18-34-35-29-38s26 9 48 27c21 18 34 35 29 38-6 4-27-8-48-27zM4071 671c-21-17-30-31-23-35 6-4 25 6 43 22 42 38 24 49-20 13zM7437 643c-37-30-64-59-61-64 6-11 39 11 103 68 69 62 34 58-42-4zM1465 668c-50-36-75-60-69-69 3-5 30 10 59 32 30 23 52 45 49 50-7 11-4 12-39-13zM4735 668c-50-36-75-60-69-69 3-5 30 10 59 32 30 23 52 45 49 50-7 11-4 12-39-13zM8617 633c-66-53-67-78-1-31 54 39 78 64 67 71-5 3-35-15-66-40zM6495 616c-27-23-44-45-39-49 6-3 32 13 59 37 27 23 44 45 39 49-6 3-32-13-59-37zM13827 632c-15-16-24-31-21-35 8-8 74 45 68 55-9 14-19 9-47-20zM2155 606c-22-19-34-35-28-39s27 8 48 27c22 19 34 35 28 39s-27-8-48-27zM3371 601c-19-16-30-31-24-34 5-3 25 6 43 22 19 15 29 30 24 33-5 4-25-6-43-21zM12810 581c-30-26-49-50-44-54 5-3 34 16 64 42s49 50 43 54c-5 3-34-15-63-42zM10286 591c-15-16-23-31-18-35 5-3 21 8 36 23 15 16 23 31 18 35-5 3-21-8-36-23zM11557 575c-32-25-55-50-52-55s32 11 65 37c33 25 57 50 54 54-7 12-2 15-67-36zM12908 557c-43-33-75-64-72-69 6-9 59 27 128 85 70 60 23 46-56-16zM14896 574c-55-45-70-83-18-44 64 47 94 77 85 83-6 4-36-14-67-39zM15841 596c-13-13-18-26-13-30 5-3 19 5 31 18 13 13 18 26 13 30-5 3-19-5-31-18zM2826 581c-15-16-23-31-18-35 5-3 21 8 36 23 15 16 23 31 18 35-5 3-21-8-36-23zM10121 571c-24-21-40-41-35-44 6-3 30 11 54 32s39 40 34 43c-5 4-29-11-53-31zM13172 558c-34-27-59-54-56-59s32 12 65 38c66 51 73 59 62 66-5 3-36-17-71-45zM1460 561c-24-21-39-40-34-44 6-3 30 11 54 32s39 40 34 44c-6 3-30-11-54-32zM4730 561c-24-21-39-40-34-44 6-3 30 11 54 32s39 40 34 44c-6 3-30-11-54-32zM13047 563c-26-19-44-39-41-44s26 5 50 23c51 36 58 44 47 51-5 3-30-11-56-30zM816 571c-10-11-13-22-8-25s17 3 26 13c10 11 13 22 8 25s-17-3-26-13zM4086 571c-10-11-13-22-8-25s17 3 26 13c10 11 13 22 8 25s-17-3-26-13zM8656 561c-10-11-13-22-8-25s17 3 26 13c10 11 13 22 8 25s-17-3-26-13zM13831 530c-29-26-49-50-44-53 6-4 34 15 63 42 30 26 50 50 44 53-5 3-33-16-63-42zM6526 541c-15-16-23-31-18-35 5-3 21 8 36 23 15 16 23 31 18 35-5 3-21-8-36-23zM15776 541c-15-16-23-31-18-35 5-3 21 8 36 23 15 16 23 31 18 35-5 3-21-8-36-23zM2165 506c-34-30-54-55-48-59s37 17 69 46c32 30 53 56 48 60-6 3-37-18-69-47zM10215 536c-15-13-24-25-19-29 6-3 23 4 39 17 15 13 24 25 19 29-6 3-23-4-39-17zM13237 505c-32-25-55-50-52-55 4-6 33 10 66 36 33 25 57 50 54 55-8 12-2 15-68-36zM3375 496c-27-23-44-45-39-48 5-4 32 13 59 36 26 23 44 45 38 49-5 3-31-13-58-37zM7385 496c-21-18-34-35-29-39 5-3 27 9 49 27 21 18 34 35 29 39-5 3-27-9-49-27zM8696 484c-26-23-36-38-30-44 7-7 23 3 48 29 48 49 34 60-18 15zM15820 471c-31-27-49-50-43-54 5-3 34 15 63 42 31 27 49 50 43 54-5 3-34-15-63-42zM1466 455c-27-23-45-45-39-48 5-3 31 13 58 37 27 23 45 45 39 48-5 3-31-13-58-37zM4736 455c-27-23-45-45-39-48 5-3 31 13 58 37 27 23 45 45 39 48-5 3-31-13-58-37zM6553 457c-28-23-50-45-47-49 7-11 30 3 78 44 57 50 31 53-31 5zM14901 476c-13-13-18-26-13-30 5-3 19 5 31 18 13 13 18 26 13 30-5 3-19-5-31-18zM13859 452c-23-21-38-41-33-45 6-3 30 11 54 32 26 22 39 40 33 44s-30-10-54-31zM7445 436c-27-23-45-45-39-48 5-3 31 13 58 37 27 23 45 45 39 48-5 3-31-13-58-37zM11535 446c-21-18-34-35-29-38s26 9 48 27c21 18 34 35 29 38-6 4-27-8-48-27zM2200 431c-24-21-39-40-34-43 5-4 29 11 53 31 24 21 40 41 35 44-6 3-30-11-54-32zM5881 436c-13-13-18-26-13-30 5-3 19 5 31 18 13 13 18 26 13 30-5 3-19-5-31-18zM5321 421c-24-20-30-30-21-36 7-5 23 4 42 23 39 38 23 49-21 13zM8740 411c-24-21-39-40-34-43 5-4 29 11 53 31 24 21 40 41 35 44-6 3-30-11-54-32zM848 382c-26-19-45-39-42-44 6-10 29 2 73 40 51 42 23 47-31 4zM4118 382c-26-19-45-39-42-44 6-10 29 2 73 40 51 42 23 47-31 4zM1490 371c-24-21-39-40-34-43 5-4 29 11 53 31 24 21 40 41 35 44-6 3-30-11-54-32zM3366 381c-15-16-23-31-18-35 5-3 21 8 36 23 15 16 23 31 18 35-5 3-21-8-36-23zM4760 371c-24-21-39-40-34-43 5-4 29 11 53 31 24 21 40 41 35 44-6 3-30-11-54-32zM6586 381c-15-16-23-31-18-35 5-3 21 8 36 23 15 16 23 31 18 35-5 3-21-8-36-23zM15824 367c-62-57-43-68 21-13 29 25 44 45 38 49s-33-12-59-36zM13896 375c-42-26-62-50-47-59 11-7 102 64 95 75s-2 13-48-16zM14881 351c-30-26-50-50-45-54 6-3 34 16 64 42 29 26 50 50 44 53-5 4-33-15-63-41zM2202 328c-34-27-59-54-56-59s32 12 65 38c66 51 73 59 62 66-5 3-36-17-71-45zM8776 335c-21-18-34-35-29-38 6-4 27 8 48 27 21 18 34 35 29 38s-26-9-48-27zM11511 346c-13-13-18-26-13-30 5-3 19 5 31 18 13 13 18 26 13 30-5 3-19-5-31-18zM8091 316c-18-19-29-36-23-39 5-4 23 9 41 27 18 19 29 36 23 39-5 4-23-9-41-27zM5326 321c-10-11-13-22-8-25s17 3 26 13c10 11 13 22 8 25s-17-3-26-13zM6638 315c-41-27-52-41-40-49 12-7 93 54 86 65-6 11-2 13-46-16zM7426 311c-15-16-23-31-18-35 5-3 21 8 36 23 15 16 23 31 18 35-5 3-21-8-36-23zM15856 281c-10-11-13-22-8-25s17 3 26 13c10 11 13 22 8 25s-17-3-26-13z"/></svg>